<svg xmlns="http://www.w3.org/2000/svg" height="24px" viewBox="0 -960 960 960" width="24px" fill="#00CC99"><path d="M240-160q-33 0-56.5-23.5T160-240v-400q0-33 23.5-56.5T240-720h360q33 0 56.5 23.5T680-640v80h160v200l-80 120h-80v100q0 33-23.5 56.5T600-160q-33 0-56.5-23.5T520-240h-80q0 33-23.5 56.5T360-160q-33 0-56.5-23.5T280-240h-40Zm0-80h40q0-17 11.5-28.5T320-280q17 0 28.5 11.5T360-240h160q0-17 11.5-28.5T560-280q17 0 28.5 11.5T600-240h80v-320H240v320Zm440-200h120v-80h-120v80Zm-440 0h360v-240H240v240Zm0 0v-240 240Z"/></svg>
